<svg width="199" height="54" viewBox="0 0 199 54" fill="none" xmlns="http://www.w3.org/2000/svg">
<path d="M51.224 14.62V20.236H41.072V24.7H48.56V30.064H41.072V40H34.016V14.62H51.224ZM66.3637 40.252C63.9877 40.252 61.8037 39.7 59.8117 38.596C57.8197 37.468 56.2357 35.92 55.0597 33.952C53.9077 31.96 53.3317 29.716 53.3317 27.22C53.3317 24.724 53.9077 22.492 55.0597 20.524C56.2357 18.532 57.8197 16.984 59.8117 15.88C61.8037 14.776 63.9877 14.224 66.3637 14.224C68.7637 14.224 70.9477 14.776 72.9157 15.88C74.9077 16.984 76.4797 18.532 77.6317 20.524C78.7837 22.492 79.3597 24.724 79.3597 27.22C79.3597 29.716 78.7837 31.96 77.6317 33.952C76.4797 35.92 74.9077 37.468 72.9157 38.596C70.9237 39.7 68.7397 40.252 66.3637 40.252ZM66.3637 33.7C68.1637 33.7 69.5797 33.112 70.6117 31.936C71.6677 30.76 72.1957 29.188 72.1957 27.22C72.1957 25.204 71.6677 23.62 70.6117 22.468C69.5797 21.292 68.1637 20.704 66.3637 20.704C64.5397 20.704 63.1117 21.292 62.0797 22.468C61.0477 23.62 60.5317 25.204 60.5317 27.22C60.5317 29.212 61.0477 30.796 62.0797 31.972C63.1117 33.124 64.5397 33.7 66.3637 33.7ZM95.3836 40L90.3436 30.64H89.5876V40H82.5316V14.62H93.6556C95.6956 14.62 97.4236 14.98 98.8396 15.7C100.256 16.396 101.324 17.368 102.044 18.616C102.764 19.84 103.124 21.22 103.124 22.756C103.124 24.484 102.644 26.008 101.684 27.328C100.748 28.624 99.3676 29.548 97.5436 30.1L103.268 40H95.3836ZM89.5876 25.816H93.0796C94.0396 25.816 94.7596 25.588 95.2396 25.132C95.7196 24.676 95.9596 24.016 95.9596 23.152C95.9596 22.336 95.7076 21.7 95.2036 21.244C94.7236 20.764 94.0156 20.524 93.0796 20.524H89.5876V25.816ZM125.448 14.62V20.236H118.68V40H111.624V20.236H104.928V14.62H125.448ZM134.971 14.62V29.344C134.971 30.712 135.283 31.768 135.907 32.512C136.555 33.256 137.527 33.628 138.823 33.628C140.119 33.628 141.091 33.256 141.739 32.512C142.411 31.744 142.747 30.688 142.747 29.344V14.62H149.803V29.344C149.803 31.672 149.311 33.664 148.327 35.32C147.343 36.952 145.999 38.188 144.295 39.028C142.615 39.844 140.743 40.252 138.679 40.252C136.615 40.252 134.767 39.844 133.135 39.028C131.527 38.188 130.255 36.952 129.319 35.32C128.407 33.688 127.951 31.696 127.951 29.344V14.62H134.971ZM177.196 40H170.14L160.744 25.816V40H153.688V14.62H160.744L170.14 28.984V14.62H177.196V40ZM188.271 20.272V24.412H196.371V29.776H188.271V34.348H197.451V40H181.215V14.62H197.451V20.272H188.271Z" fill="black"/>
<path d="M17.3333 27H29.3333M9.33333 27H12M12 36.3333H29.3333M4 36.3333H6.66667M12 17.6666H29.3333M4 17.6666H6.66667" stroke="#1E1E1E" stroke-width="2.66667" stroke-linecap="round" stroke-linejoin="round"/>
</svg>
